<?xml version="1.0" encoding="UTF-8"?>
<!DOCTYPE svg PUBLIC "-//W3C//DTD SVG 1.1//EN" "http://www.w3.org/Graphics/SVG/1.1/DTD/svg11.dtd">
<svg xmlns="http://www.w3.org/2000/svg" version="1.1" width="428px" height="145px" style="shape-rendering:geometricPrecision; text-rendering:geometricPrecision; image-rendering:optimizeQuality; fill-rule:evenodd; clip-rule:evenodd" xmlns:xlink="http://www.w3.org/1999/xlink">
<g><path style="opacity:0.87" fill="#8da648" d="M 68.5,-0.5 C 69.8333,-0.5 71.1667,-0.5 72.5,-0.5C 74.6402,2.16496 77.1402,4.4983 80,6.5C 80.6667,17.8333 80.6667,29.1667 80,40.5C 71.6524,49.0145 63.1524,57.3478 54.5,65.5C 51.8605,62.1938 48.8605,59.1938 45.5,56.5C 44.3342,45.5151 44.1676,34.5151 45,23.5C 53.0358,15.6316 60.8691,7.63162 68.5,-0.5 Z"/></g>
<g><path style="opacity:0.878" fill="#8da648" d="M 84.5,44.5 C 95.5202,44.1679 106.52,44.5012 117.5,45.5C 125.652,54.1524 133.986,62.6524 142.5,71C 139.833,74.3333 137.167,77.6667 134.5,81C 123.5,81.6667 112.5,81.6667 101.5,81C 92.1449,72.9782 83.4782,64.3115 75.5,55C 79.0837,51.9227 82.0837,48.4227 84.5,44.5 Z"/></g>
<g><path style="opacity:0.869" fill="#8da648" d="M -0.5,72.5 C -0.5,71.1667 -0.5,69.8333 -0.5,68.5C 1.60004,65.8959 3.93337,63.3959 6.5,61C 16.88,60.81 27.2133,60.31 37.5,59.5C 47.3282,67.4949 56.3282,76.3282 64.5,86C 61.8832,89.62 58.8832,92.9533 55.5,96C 44.8333,96.6667 34.1667,96.6667 23.5,96C 15.6316,87.9642 7.63162,80.1309 -0.5,72.5 Z"/></g>
<g><path style="opacity:0.775" fill="#8ea441" d="M 278.5,74.5 C 282.013,74.3075 285.346,74.9741 288.5,76.5C 287.652,78.4086 287.318,80.4086 287.5,82.5C 278.866,80.1281 275.2,83.4614 276.5,92.5C 279.167,92.5 281.833,92.5 284.5,92.5C 284.5,94.8333 284.5,97.1667 284.5,99.5C 281.833,99.5 279.167,99.5 276.5,99.5C 276.666,109.506 276.5,119.506 276,129.5C 273.281,130.444 270.448,130.777 267.5,130.5C 267.5,120.167 267.5,109.833 267.5,99.5C 265.833,99.5 264.167,99.5 262.5,99.5C 262.5,97.1667 262.5,94.8333 262.5,92.5C 264.167,92.5 265.833,92.5 267.5,92.5C 266.768,83.5873 270.435,77.5873 278.5,74.5 Z"/></g>
<g><path style="opacity:0.859" fill="#8da748" d="M 83.5,76.5 C 88.9085,78.0543 93.0752,81.3876 96,86.5C 96.6667,96.8333 96.6667,107.167 96,117.5C 88.1667,125.333 80.3333,133.167 72.5,141C 70.8333,141.667 69.1667,141.667 67.5,141C 65.2953,138.46 62.7953,136.293 60,134.5C 59.3333,123.833 59.3333,113.167 60,102.5C 68.0403,93.9627 75.8737,85.2961 83.5,76.5 Z"/></g>
<g><path style="opacity:0.768" fill="#7f7f7e" d="M 127.5,91.5 C 144.127,90.9604 151.627,98.9604 150,115.5C 147.113,127.39 139.613,132.557 127.5,131C 120.333,129.167 115.833,124.667 114,117.5C 111.455,104.916 115.955,96.2494 127.5,91.5 Z M 128.5,98.5 C 135.244,97.2822 139.411,99.9489 141,106.5C 142.65,112.926 141.15,118.426 136.5,123C 132.343,125.171 128.509,124.671 125,121.5C 119.674,112.661 120.84,104.994 128.5,98.5 Z"/></g>
<g><path style="opacity:0.785" fill="#7f7f7e" d="M 162.5,144.5 C 159.833,144.5 157.167,144.5 154.5,144.5C 154.693,127.151 154.36,109.818 153.5,92.5C 156.167,92.5 158.833,92.5 161.5,92.5C 161.343,93.8734 161.51,95.2068 162,96.5C 168.204,90.9537 175.038,90.1204 182.5,94C 190.219,101.927 192.052,111.094 188,121.5C 181.59,131.977 173.256,133.977 163,127.5C 162.501,133.157 162.334,138.824 162.5,144.5 Z M 169.5,98.5 C 177.618,98.9538 181.618,103.287 181.5,111.5C 180.748,122.363 175.415,125.863 165.5,122C 162.611,116.879 161.777,111.379 163,105.5C 164.356,102.314 166.522,99.9809 169.5,98.5 Z"/></g>
<g><path style="opacity:0.752" fill="#7f7f7e" d="M 204.5,91.5 C 219.763,90.7702 226.43,98.1035 224.5,113.5C 216.167,113.5 207.833,113.5 199.5,113.5C 200.245,120.574 204.245,124.241 211.5,124.5C 214.35,123.897 217.184,123.23 220,122.5C 222.134,124.287 222.967,126.62 222.5,129.5C 198.949,135.108 189.115,126.108 193,102.5C 195.437,97.2262 199.271,93.5595 204.5,91.5 Z M 204.5,98.5 C 211.501,96.8514 215.501,99.5181 216.5,106.5C 210.824,106.666 205.157,106.499 199.5,106C 200.574,103.095 202.241,100.595 204.5,98.5 Z"/></g>
<g><path style="opacity:0.789" fill="#7f7f7e" d="M 243.5,91.5 C 251.274,90.4682 256.774,93.4682 260,100.5C 260.5,110.494 260.666,120.494 260.5,130.5C 257.833,130.5 255.167,130.5 252.5,130.5C 252.666,121.827 252.5,113.16 252,104.5C 249.114,98.7369 244.947,97.5703 239.5,101C 238.54,102.419 237.707,103.919 237,105.5C 236.5,113.827 236.334,122.16 236.5,130.5C 233.833,130.5 231.167,130.5 228.5,130.5C 228.5,117.833 228.5,105.167 228.5,92.5C 230.833,92.5 233.167,92.5 235.5,92.5C 235.343,93.8734 235.51,95.2068 236,96.5C 238.17,94.1769 240.67,92.5103 243.5,91.5 Z"/></g>
<g><path style="opacity:0.756" fill="#8da441" d="M 293.5,91.5 C 304.049,89.3661 310.549,93.3661 313,103.5C 313.5,112.494 313.666,121.494 313.5,130.5C 311.143,130.663 308.81,130.497 306.5,130C 305.874,129.25 305.374,128.416 305,127.5C 299.542,132.102 293.709,132.602 287.5,129C 282.227,122.737 282.227,116.403 287.5,110C 292.704,106.923 298.37,105.423 304.5,105.5C 304.919,102.675 303.919,100.509 301.5,99C 297.188,98.2264 293.022,98.7264 289,100.5C 287.033,99.5067 285.866,97.84 285.5,95.5C 287.991,93.5877 290.658,92.2544 293.5,91.5 Z M 303.5,111.5 C 306.536,119.968 303.536,124.135 294.5,124C 291.209,121.668 290.709,118.835 293,115.5C 296.284,113.384 299.784,112.051 303.5,111.5 Z"/></g>
<g><path style="opacity:0.788" fill="#8da441" d="M 332.5,91.5 C 334.5,91.5 336.5,91.5 338.5,91.5C 338.5,94.1667 338.5,96.8333 338.5,99.5C 333.081,98.9593 329.581,101.293 328,106.5C 327.5,114.493 327.334,122.493 327.5,130.5C 324.833,130.5 322.167,130.5 319.5,130.5C 319.775,117.796 319.442,105.13 318.5,92.5C 321.167,92.5 323.833,92.5 326.5,92.5C 326.343,93.8734 326.51,95.2068 327,96.5C 328.73,94.5981 330.563,92.9314 332.5,91.5 Z"/></g>
<g><path style="opacity:0.781" fill="#8ea441" d="M 355.5,91.5 C 361.661,90.3315 366.494,92.3315 370,97.5C 375.518,91.0795 382.018,89.9128 389.5,94C 391.652,96.4689 393.152,99.3022 394,102.5C 394.5,111.827 394.666,121.161 394.5,130.5C 391.833,130.5 389.167,130.5 386.5,130.5C 386.666,122.16 386.5,113.827 386,105.5C 384.637,99.4942 381.137,97.6609 375.5,100C 374.299,100.903 373.465,102.069 373,103.5C 372.667,112.167 372.333,120.833 372,129.5C 369.281,130.444 366.448,130.777 363.5,130.5C 363.666,121.494 363.5,112.494 363,103.5C 358.461,97.1977 354.127,97.531 350,104.5C 349.5,113.16 349.334,121.827 349.5,130.5C 346.833,130.5 344.167,130.5 341.5,130.5C 341.775,117.796 341.442,105.13 340.5,92.5C 343.167,92.5 345.833,92.5 348.5,92.5C 348.343,93.8734 348.51,95.2068 349,96.5C 350.805,94.1743 352.972,92.5077 355.5,91.5 Z"/></g>
<g><path style="opacity:0.768" fill="#8da441" d="M 427.5,100.5 C 427.5,110.5 427.5,120.5 427.5,130.5C 425.167,130.5 422.833,130.5 420.5,130.5C 420.372,127.226 419.039,127.059 416.5,130C 406.376,133.637 400.043,130.304 397.5,120C 398.932,111.57 403.932,106.903 412.5,106C 414.81,105.503 417.143,105.337 419.5,105.5C 419.556,102.439 418.222,100.272 415.5,99C 410.707,98.3492 406.04,98.8492 401.5,100.5C 400.769,98.4012 400.769,96.4012 401.5,94.5C 408.437,90.8202 415.437,90.6535 422.5,94C 424.55,95.9651 426.217,98.1318 427.5,100.5 Z M 418.5,111.5 C 421.112,121.387 417.446,125.221 407.5,123C 406.212,120.534 406.212,118.034 407.5,115.5C 410.934,113.265 414.601,111.932 418.5,111.5 Z"/></g>
</svg>
